<mxfile host="app.diagrams.net" modified="2023-05-22T20:21:56.386Z" agent="Mozilla/5.0 (X11; Linux x86_64) AppleWebKit/537.36 (KHTML, like Gecko) Chrome/113.0.0.0 Safari/537.36" etag="DnWVgTpC3r720DkS5bTo" version="21.3.2" type="github">
  <diagram name="Page-1" id="44MveCpyiVJgPJcJwC7Q">
    <mxGraphModel dx="1762" dy="1175" grid="1" gridSize="10" guides="1" tooltips="1" connect="1" arrows="1" fold="1" page="0" pageScale="1" pageWidth="850" pageHeight="1100" math="0" shadow="0">
      <root>
        <mxCell id="0" />
        <mxCell id="1" parent="0" />
        <mxCell id="sdCEZX44FV42Ba-hpYHV-5" style="edgeStyle=orthogonalEdgeStyle;rounded=0;orthogonalLoop=1;jettySize=auto;html=1;exitX=1;exitY=0.5;exitDx=0;exitDy=0;entryX=0;entryY=0.5;entryDx=0;entryDy=0;" edge="1" parent="1" source="sdCEZX44FV42Ba-hpYHV-3" target="sdCEZX44FV42Ba-hpYHV-4">
          <mxGeometry relative="1" as="geometry" />
        </mxCell>
        <mxCell id="sdCEZX44FV42Ba-hpYHV-3" value="LinOps&lt;br&gt;&lt;ul style=&quot;box-sizing: border-box; margin: 0px; padding: 0px; list-style: none; font-family: monospace; text-align: start;&quot; class=&quot;list-unstyled&quot;&gt;10.50.30.190&lt;/ul&gt;" style="whiteSpace=wrap;html=1;aspect=fixed;" vertex="1" parent="1">
          <mxGeometry x="-110" y="-50" width="140" height="140" as="geometry" />
        </mxCell>
        <mxCell id="sdCEZX44FV42Ba-hpYHV-4" value="Jump-Box&lt;br&gt;10.50.34.91" style="whiteSpace=wrap;html=1;aspect=fixed;" vertex="1" parent="1">
          <mxGeometry x="180" y="-50" width="140" height="140" as="geometry" />
        </mxCell>
      </root>
    </mxGraphModel>
  </diagram>
</mxfile>
